<svg xmlns="http://www.w3.org/2000/svg" version="1.1" xmlns:xlink="http://www.w3.org/1999/xlink" xmlns:svgjs="http://svgjs.com/svgjs" width="336" height="482"><svg width="336" height="482" viewBox="0 0 336 482" fill="none" xmlns="http://www.w3.org/2000/svg">
<path d="M170.853 169.877C209.88 169.877 241.518 138.238 241.518 99.2107C241.518 60.183 209.88 28.5448 170.853 28.5448C131.825 28.5448 100.187 60.183 100.187 99.2107C100.187 138.238 131.825 169.877 170.853 169.877Z" fill="#FEB8B8"></path>
<path d="M236.855 38.246C226.29 21.0898 209.752 8.4481 190.425 2.75431L181.75 9.0851V0.864751C177.108 0.15434 172.41 -0.119331 167.718 0.0473375L160.233 6.81954V0.609975C149.151 1.98706 138.475 5.64533 128.878 11.3541C119.28 17.0628 110.969 24.6983 104.47 33.7789C88.216 57.2111 85.472 89.8105 101.459 113.431C105.847 99.9436 111.174 87.2888 115.563 73.803C119.013 74.2732 122.508 74.2902 125.962 73.8534L131.301 61.3948L132.793 73.3262C149.343 71.8848 173.889 68.7188 189.578 65.8184L188.052 56.6648L197.18 64.2708C201.986 63.1646 204.84 62.1605 204.605 61.3936C216.273 80.2047 230.553 92.2192 242.22 111.03C246.652 84.5056 251.752 62.4506 236.855 38.246Z" fill="#2F2E41"></path>
<path d="M322.835 280.93C320.405 266.311 317.898 251.411 311.104 238.241C306.639 229.615 299.55 221.395 289.994 219.689C288.112 219.521 286.262 219.093 284.498 218.417C281.698 217.068 244.073 195.589 238.092 191.848C232.958 188.637 224.852 182.69 220.765 182.69C216.654 182.6 200.888 186.269 139.352 181.459C139.352 181.459 122.447 188.122 109.366 196.202C109.168 196.071 45.497 230.262 43.105 230.172C38.575 229.982 34.364 232.882 31.767 236.535C29.171 240.187 27.953 244.709 26.678 249.08C40.585 280.05 53.309 311.06 67.217 342.03C67.868 343.196 68.214 344.509 68.223 345.844C67.943 347.231 67.351 348.535 66.492 349.659C59.672 360.615 59.889 374.395 60.634 387.272C61.38 400.149 62.302 413.75 56.547 425.292C54.982 428.461 52.946 431.361 51.457 434.53C47.971 441.707 46.711 464.661 48.747 472.372L303.868 479.68C298.383 464.602 322.835 280.93 322.835 280.93Z" fill="#0A59F7"></path>
<path d="M4.62499 343.403C4.11599 347.085 4.06498 350.817 4.47298 354.512L8.12899 407.024C8.47299 411.974 8.81098 416.911 9.27498 421.848C10.152 431.429 11.463 440.934 13.09 450.426C13.126 451.773 13.696 453.051 14.674 453.979C15.652 454.907 16.958 455.409 18.306 455.375C34.402 458.781 51.032 458.645 67.459 457.717C92.526 456.318 156.657 453.671 160.575 448.581C164.493 443.491 162.21 435.259 157.101 431.143C151.992 427.028 67.362 416.994 67.362 416.994C68.189 410.441 70.684 404.27 73.05 398.048C77.301 387.013 81.271 375.616 81.347 363.795C81.423 351.974 76.97 339.545 67.286 332.773C59.321 327.213 49.065 326.182 39.358 326.411C32.296 326.614 20.093 324.922 13.643 327.683C8.53799 329.931 5.57899 338.405 4.62499 343.403Z" fill="#FBBEBE"></path>
<path d="M25.942 250.023C24.703 251.321 23.742 252.858 23.118 254.541C12.833 277.72 6.758 302.546 5.177 327.856C5.205 329.09 4.921 330.312 4.35 331.406C3.788 332.135 3.16201 332.812 2.48001 333.429C1.88501 334.134 1.43499 334.95 1.15499 335.829C0.875994 336.708 0.772001 337.633 0.850001 338.552C0.928001 339.472 1.18598 340.366 1.60998 341.186C2.03398 342.005 2.615 342.733 3.32 343.328C3.435 343.425 3.55399 343.519 3.67599 343.609C5.77499 339.658 10.801 338.367 15.268 338.023C36.657 336.331 57.55 346.282 79.002 345.531C77.489 340.301 75.312 335.275 74.077 329.983C68.619 306.481 82.234 280.894 73.887 258.257C72.219 253.727 69.433 249.274 65.044 247.289C63.226 246.556 61.324 246.052 59.382 245.79C53.961 244.811 43.17 240.624 37.929 242.304C35.995 242.928 35.232 244.747 33.628 245.846C31.192 247.402 27.961 247.974 25.942 250.023Z" fill="#0A59F7"></path>
<path d="M322.988 327.683C316.537 324.922 304.334 326.614 297.272 326.411C287.565 326.182 277.31 327.213 269.344 332.773C259.661 339.545 255.207 351.974 255.283 363.795C255.36 375.616 259.33 387.013 263.58 398.048C265.946 404.27 268.441 410.441 269.268 416.994C269.268 416.994 184.638 427.028 179.529 431.143C174.42 435.259 172.137 443.491 176.055 448.581C179.973 453.671 302.228 458.781 318.324 455.375C319.672 455.409 320.978 454.907 321.956 453.979C322.934 453.051 323.504 451.773 323.541 450.426C325.167 440.934 326.478 431.429 327.355 421.848C327.82 416.911 328.158 411.974 328.501 407.024L332.157 354.512C332.565 350.817 332.514 347.086 332.005 343.403C331.051 338.405 328.092 329.931 322.988 327.683Z" fill="#FBBEBE"></path>
<path d="M303.002 245.846C301.399 244.747 300.636 242.928 298.701 242.304C293.46 240.624 282.669 244.811 277.248 245.79C275.306 246.052 273.404 246.556 271.587 247.289C267.197 249.274 264.411 253.727 262.744 258.257C254.397 280.893 268.012 306.481 262.553 329.983C261.319 335.275 259.142 340.301 257.628 345.531C279.081 346.282 299.974 336.331 321.362 338.023C325.829 338.366 330.855 339.658 332.954 343.609C333.076 343.519 333.195 343.425 333.311 343.328C334.016 342.733 334.597 342.005 335.021 341.186C335.444 340.366 335.703 339.472 335.781 338.552C335.859 337.633 335.755 336.708 335.475 335.829C335.195 334.95 334.745 334.134 334.151 333.429C333.468 332.812 332.842 332.135 332.28 331.406C331.71 330.312 331.425 329.09 331.453 327.856C329.873 302.546 323.798 277.72 313.513 254.54C312.889 252.858 311.928 251.321 310.688 250.023C308.669 247.974 305.438 247.402 303.002 245.846Z" fill="#0A59F7"></path>
<path d="M149.924 457.883C160.457 457.883 168.996 449.344 168.996 438.81C168.996 428.277 160.457 419.738 149.924 419.738C139.39 419.738 130.851 428.277 130.851 438.81C130.851 449.344 139.39 457.883 149.924 457.883Z" fill="#FBBEBE"></path>
<path d="M192.156 457.883C202.69 457.883 211.229 449.344 211.229 438.81C211.229 428.277 202.69 419.738 192.156 419.738C181.623 419.738 173.083 428.277 173.083 438.81C173.083 449.344 181.623 457.883 192.156 457.883Z" fill="#FBBEBE"></path>
<path d="M309.888 481.788H47.857C44.797 481.785 41.865 480.568 39.701 478.405C37.538 476.242 36.321 473.309 36.317 470.25V311.283C36.321 308.224 37.538 305.291 39.701 303.128C41.865 300.964 44.797 299.748 47.857 299.744H309.888C312.947 299.748 315.88 300.964 318.043 303.128C320.206 305.291 321.423 308.224 321.427 311.283V470.25C321.423 473.309 320.206 476.242 318.043 478.405C315.88 480.568 312.947 481.785 309.888 481.788Z" fill="#3F3D56"></path>
<path d="M178.237 398.401C182.453 398.401 185.871 394.983 185.871 390.766C185.871 386.55 182.453 383.132 178.237 383.132C174.02 383.132 170.602 386.55 170.602 390.766C170.602 394.983 174.02 398.401 178.237 398.401Z" fill="white"></path>
<path d="M105.871 125.549C94.516 125.549 85.311 115.597 85.311 103.32V92.205C85.311 79.928 94.516 69.9756 105.871 69.9756V125.549Z" fill="#0A59F7"></path>
<path d="M237.094 69.9756C248.449 69.9756 257.654 79.928 257.654 92.205V103.32C257.654 115.597 248.449 125.549 237.094 125.549V69.9756Z" fill="#0A59F7"></path>
<path d="M247.868 93.9516H244.606C244.606 49.2216 210.949 12.8309 169.58 12.8309C128.21 12.8309 94.554 49.2216 94.554 93.9516H91.292C91.292 47.2767 126.412 9.30396 169.58 9.30396C212.748 9.30398 247.868 47.2767 247.868 93.9516Z" fill="#0A59F7"></path>
</svg><style>@media (prefers-color-scheme: light) { :root { filter: none; } }
</style></svg>