<svg width="347" height="174" viewBox="0 0 347 174" fill="none" xmlns="http://www.w3.org/2000/svg">
<path d="M34.5436 136.911C34.5369 136.813 34.5306 136.696 34.524 136.598C34.5029 135.569 34.0864 134.648 33.6339 133.744C33.565 133.634 33.4956 133.541 33.4267 133.431C33.4391 133.28 33.3885 133.152 33.2474 133.075C33.0992 132.916 32.9597 132.767 32.8024 132.617C32.7177 132.417 32.587 132.277 32.3542 132.303C32.2392 132.253 32.1243 132.203 32.0185 132.145C31.8553 131.861 31.6708 132.121 31.4923 132.113C31.1889 131.716 30.8767 131.309 30.5733 130.911C30.4314 130.869 30.3671 130.947 30.3294 131.035C30.3762 130.938 30.4314 130.869 30.5733 130.911C30.3309 130.579 30.0976 130.238 29.8552 129.906C29.6115 129.627 29.3766 129.358 29.1238 129.087C29.0549 128.977 28.9773 128.858 28.9083 128.747C28.7352 128.507 28.553 128.276 28.3799 128.036C28.328 127.962 28.2761 127.889 28.233 127.824C28.103 127.649 27.9727 127.491 27.8336 127.324C27.8079 127.278 27.8 127.233 27.7743 127.187C27.1328 125.953 26.0649 125.013 25.3509 123.829C24.7485 122.837 23.8366 122.1 23.2521 121.11C23.1919 121.009 23.1052 120.898 22.9533 120.9C22.8923 120.835 22.8226 120.76 22.7615 120.695C22.761 120.329 22.4423 120.207 22.2327 120.002C22.1107 119.871 21.9974 119.75 21.8753 119.62C21.5877 119.312 21.3 119.005 21.0215 118.689C20.8563 118.494 20.6911 118.299 20.5259 118.104C20.4582 117.94 20.3997 117.768 20.1951 117.732C20.1341 117.667 20.0639 117.61 20.0029 117.545C19.4001 116.571 18.3232 116.024 17.7391 115.015C17.6445 114.859 17.3943 114.866 17.228 115.109C17.0434 115.369 16.7705 115.589 16.4215 115.619C15.8668 115.666 15.3694 115.939 14.8744 116.105C14.7305 116.152 14.2201 116.211 14.1945 116.549C14.1508 117.289 14.2858 118.019 14.5827 118.702C14.5914 118.711 14.6184 118.703 14.645 118.713C14.7595 118.781 14.8919 118.849 15.0064 118.917C15.0845 119.019 15.1716 119.112 15.3053 119.127C15.6041 119.336 15.5934 119.8 16.0109 119.899C16.0437 120.026 16.0944 120.153 16.2272 120.203C16.2152 120.337 16.304 120.359 16.3932 120.363C16.3936 120.345 16.394 120.327 16.4031 120.318C16.4027 120.336 16.4023 120.354 16.3932 120.363C16.472 120.429 16.5691 120.478 16.6302 120.543C17.3964 121.398 18.0714 122.339 18.938 123.101C18.9181 123.19 18.9525 123.245 19.0596 123.25C19.0928 123.358 19.1443 123.45 19.2596 123.482C19.2207 123.623 19.3099 123.627 19.4082 123.622C19.5394 123.744 19.6701 123.884 19.8013 124.006C19.8167 124.114 19.8872 124.153 19.9764 124.156C20.0498 124.07 20.0888 123.929 20.1448 123.824C20.0801 123.92 20.032 124.07 19.9764 124.156C20.1516 124.307 20.1811 124.576 20.4019 124.684C20.5132 124.895 20.4158 125.248 20.7805 125.309C20.8411 125.392 20.8926 125.483 20.9445 125.557C20.857 125.866 21.06 125.973 21.2998 126.028C21.6148 126.31 21.793 126.72 22.0259 127.079C22.0686 127.161 22.1122 127.208 22.1558 127.254C22.3471 127.477 22.5754 127.648 22.9219 127.726L22.9211 127.761C22.8738 127.876 22.6664 127.965 22.859 128.134C22.8806 128.358 23.0487 128.428 23.2163 128.516C23.1878 128.98 23.7302 129.084 23.8013 129.489C23.9312 129.664 24.0703 129.831 24.2002 130.007C24.4165 130.311 24.5411 130.719 25.0323 130.713C25.1485 130.71 25.2436 130.848 25.2312 130.999C25.1828 131.551 25.7298 131.843 25.8436 132.331C25.9113 132.494 25.9881 132.65 26.1562 132.72C26.1795 132.873 26.2575 132.974 26.4363 132.964C26.5729 133.238 26.3854 133.239 26.1962 133.311C25.6743 133.485 25.1437 133.649 24.7156 134.015C24.4023 134.046 24.2252 134.369 23.9037 134.373C23.7867 134.412 23.6788 134.443 23.5531 134.473C23.356 134.5 23.3532 134.625 23.4034 134.771L23.3673 134.787L23.3665 134.823C23.2378 134.594 23.0723 134.801 22.9209 134.785C22.6129 134.584 22.4645 134.828 22.2907 135.008C21.9579 135.11 21.8319 135.542 21.4477 135.552C21.0594 135.74 20.8006 136.122 20.3866 136.265C20.1173 136.325 19.9697 136.533 19.8046 136.722C19.5121 137.013 19.2019 137.303 18.9094 137.594C18.6631 137.825 18.4171 138.038 18.1707 138.268C17.9434 138.446 17.7069 138.632 17.4796 138.81C17.13 139.259 16.6666 139.605 16.3871 140.111C15.6419 141.455 15.3499 142.899 15.6715 144.45C15.6869 144.558 15.7114 144.657 15.7268 144.765C15.7414 144.909 15.7468 145.061 15.7614 145.204C15.7137 145.336 15.7561 145.436 15.8615 145.512C15.8947 145.621 15.9279 145.73 15.9524 145.829C15.9753 146 15.9895 146.162 16.1115 146.292C16.4354 146.967 16.8231 147.583 17.3648 148.107C17.3777 148.322 17.4728 148.46 17.6956 148.479C17.7657 148.536 17.8271 148.583 17.8882 148.648C17.9646 148.822 18.0874 148.916 18.2766 148.844C18.5149 149.355 18.937 149.642 19.4511 149.807C19.5989 149.983 19.7657 150.107 20.0093 150.001C20.0537 150.012 20.0981 150.023 20.1425 150.034C20.2122 150.108 20.2915 150.157 20.4081 150.135C21.0156 150.51 21.7338 150.345 22.372 150.551C22.6019 150.651 22.8347 150.625 23.0596 150.555C23.3696 150.667 23.6816 150.689 23.9628 150.496C24.0861 150.573 24.211 150.578 24.3205 150.476C24.7023 150.573 25.0703 150.491 25.4466 150.436C25.6262 150.39 25.8225 150.399 25.9249 150.215C26.2909 150.223 26.6319 150.148 26.9227 149.928C27.2015 149.842 27.489 149.766 27.7678 149.679C28.6188 149.565 29.3685 149.195 30.109 148.835C30.6508 148.572 31.2532 148.393 31.5879 147.818C32.2059 147.345 33.0245 147.086 33.2238 146.183C33.2437 146.094 33.2984 146.043 33.3964 146.056C33.8698 146.05 33.9676 145.679 34.1094 145.337C34.2703 144.942 34.449 144.548 34.5837 144.125C34.9318 142.96 35.0389 141.794 34.9149 140.582C34.8492 140.329 34.6686 140.027 34.7445 139.833C34.9916 139.183 34.8097 138.549 34.8244 137.907C34.7152 137.607 34.6337 137.264 34.5436 136.911ZM18.9886 118.162C19.0821 118.371 19.3211 118.462 19.4966 118.595C19.3124 118.453 19.0733 118.362 18.9886 118.162C18.9878 118.197 18.9779 118.242 18.9858 118.287C18.9779 118.242 18.9791 118.188 18.9886 118.162ZM15.6715 144.45C15.7267 144.381 15.7561 144.266 15.8025 144.187C15.7648 144.275 15.7358 144.372 15.6715 144.45ZM16.948 144.863C16.8766 144.86 16.8052 144.857 16.7334 144.872C16.8052 144.857 16.8679 144.851 16.948 144.863ZM19.2412 147.278C19.2528 147.162 19.1577 147.024 19.2137 146.919C19.1664 147.033 19.2528 147.162 19.2412 147.278ZM19.2228 146.911C19.2407 146.911 19.2498 146.903 19.2585 146.912C19.2407 146.911 19.2315 146.92 19.2228 146.911ZM16.3011 143.476C16.3803 143.525 16.5152 143.486 16.6036 143.525C16.506 143.494 16.3803 143.525 16.3011 143.476ZM16.6613 143.733C16.6704 143.725 16.6887 143.708 16.6891 143.69C16.6708 143.707 16.6704 143.725 16.6613 143.733ZM22.9736 150.408C22.9827 150.399 23.001 150.382 23.028 150.375C23.0097 150.392 22.9827 150.399 22.9736 150.408ZM17.9442 145.032C17.9359 145.005 17.9272 144.995 17.9189 144.968C17.9272 144.995 17.9268 145.013 17.9442 145.032ZM17.327 144.299C17.2652 144.269 17.1942 144.248 17.1324 144.219C17.2034 144.24 17.2652 144.269 17.327 144.299C17.3457 144.264 17.3731 144.238 17.3917 144.203C17.3731 144.238 17.3544 144.273 17.327 144.299ZM21.1512 147.71C21.133 147.727 21.106 147.735 21.0878 147.752C21.1147 147.744 21.133 147.727 21.1512 147.71C21.1425 147.701 21.1251 147.682 21.1164 147.673C21.1338 147.691 21.1425 147.701 21.1512 147.71ZM21.687 148.1C21.6688 148.117 21.6596 148.125 21.6501 148.152C21.6596 148.125 21.6779 148.108 21.687 148.1ZM21.6874 148.082C21.6712 148.01 21.6272 147.981 21.5741 147.961C21.6272 147.981 21.6708 148.028 21.6874 148.082C21.7787 147.997 21.87 147.911 21.9612 147.826C21.8695 147.929 21.7783 148.014 21.6874 148.082ZM24.3868 150.309C24.3586 150.37 24.33 150.449 24.3018 150.511C24.33 150.449 24.3674 150.38 24.3868 150.309C24.4872 150.215 24.4013 150.068 24.4133 149.935C24.4013 150.068 24.4959 150.224 24.3868 150.309ZM24.9939 147.976L24.9944 147.959C24.9948 147.941 24.9943 147.959 24.9939 147.976ZM31.2115 146.318C31.1409 146.279 31.0795 146.232 31.0089 146.193C31.0268 146.194 31.045 146.177 31.0633 146.16C31.045 146.177 31.0272 146.176 31.0089 146.193C31.0795 146.232 31.1409 146.279 31.2115 146.318ZM31.1598 144.288C30.9863 144.065 30.877 143.766 30.5364 143.822C30.877 143.766 30.995 144.075 31.1598 144.288ZM33.274 143.603C33.2993 143.666 33.3429 143.713 33.3774 143.768C33.3429 143.713 33.2906 143.657 33.274 143.603ZM23.6981 135.159C23.9546 135.268 24.0746 135.488 24.1942 135.726C24.0746 135.488 23.9455 135.277 23.6981 135.159ZM31.6201 143.682C31.6197 143.7 31.6106 143.709 31.6102 143.726C31.6106 143.709 31.611 143.691 31.6201 143.682ZM31.3189 143.58C31.3911 143.547 31.462 143.568 31.5147 143.606C31.462 143.568 31.3998 143.556 31.3189 143.58ZM31.8423 144.121C31.7285 144.017 31.5791 143.913 31.6102 143.726C31.5878 143.922 31.7285 144.017 31.8423 144.121ZM23.8141 135.941C23.8403 135.969 23.8669 135.979 23.893 136.007C23.8577 135.988 23.8316 135.96 23.8141 135.941ZM31.7035 143.552C31.7425 143.41 31.6665 143.219 31.7145 143.07C31.6669 143.202 31.7429 143.393 31.7035 143.552ZM25.9982 136.886C25.9165 136.945 25.8273 136.941 25.7571 136.884C25.8182 136.95 25.8986 136.944 25.9982 136.886C26.0899 136.783 26.1106 136.658 26.0508 136.54C26.1106 136.658 26.0811 136.773 25.9982 136.886ZM32.6113 143.297C32.6295 143.279 32.6565 143.272 32.6656 143.263C32.6478 143.262 32.6295 143.279 32.6113 143.297C32.6366 143.36 32.6528 143.432 32.6512 143.504C32.6441 143.423 32.6366 143.36 32.6113 143.297ZM33.6973 143.836C33.7356 144.114 33.7477 144.365 33.6017 144.502C33.7481 144.347 33.736 144.096 33.6973 143.836C33.6553 143.718 33.5848 143.679 33.513 143.693C33.5848 143.679 33.6466 143.708 33.6973 143.836ZM27.2056 129.012C27.1965 129.021 27.2052 129.03 27.196 129.039C27.1873 129.029 27.1965 129.021 27.2056 129.012ZM32.9688 135.1C32.8895 135.052 32.7439 135.17 32.646 135.157C32.7352 135.161 32.8808 135.042 32.9688 135.1C33.0596 135.032 33.0978 134.927 33.1181 134.82C33.0978 134.927 33.0687 135.024 32.9688 135.1ZM27.3354 127.633C27.3806 127.608 27.408 127.583 27.4528 127.576C27.4171 127.574 27.3719 127.599 27.3354 127.633ZM18.8764 118.773C18.9727 118.858 19.0416 118.968 19.0927 119.078C19.0416 118.968 18.9814 118.867 18.8764 118.773ZM20.1404 120.509C20.1918 120.216 20.2743 120.121 20.3635 120.125C20.2743 120.121 20.2009 120.208 20.1404 120.509C20.1217 120.544 20.1122 120.57 20.0935 120.605C20.1122 120.57 20.1309 120.535 20.1404 120.509ZM20.4143 120.637C20.5288 120.704 20.6251 120.789 20.694 120.899C20.616 120.798 20.5197 120.713 20.4143 120.637ZM20.5656 121.439C20.6477 121.362 20.817 121.378 20.8817 121.283C20.8079 121.387 20.6477 121.362 20.5656 121.439C20.5473 121.456 20.5382 121.464 20.5287 121.491C20.5291 121.473 20.5473 121.456 20.5656 121.439ZM19.5682 120.537C19.54 120.599 19.5206 120.669 19.4924 120.731C19.5297 120.661 19.54 120.599 19.5682 120.537ZM20.508 121.615C20.3914 121.637 20.2831 121.686 20.2101 121.754C20.2922 121.677 20.3914 121.637 20.508 121.615ZM18.6652 120.194C18.6375 120.237 18.6005 120.289 18.5815 120.342C18.6093 120.299 18.6462 120.247 18.6652 120.194ZM20.1211 122.519C20.0303 122.586 19.861 122.57 19.7789 122.647C19.861 122.57 20.0394 122.578 20.1211 122.519ZM22.0398 125.301C22.1386 125.279 22.2373 125.256 22.3016 125.179C22.2373 125.256 22.1473 125.288 22.0398 125.301ZM19.7586 122.753C19.7669 122.78 19.7661 122.816 19.7831 122.852C19.7752 122.807 19.7582 122.771 19.7586 122.753ZM19.9282 123.922C20.248 123.605 20.2558 123.266 19.8175 122.907C20.2645 123.275 20.248 123.605 19.9282 123.922ZM20.7251 124.609C20.8699 124.526 21.006 124.434 21.1599 124.342C21.0151 124.425 20.8612 124.517 20.7251 124.609ZM26.8081 130.38C26.7534 130.431 26.7077 130.474 26.6617 130.535C26.7164 130.483 26.7712 130.432 26.8081 130.38ZM26.935 130.296C26.9338 130.35 26.9239 130.394 26.8795 130.383C26.9239 130.394 26.9425 130.359 26.935 130.296Z" fill="#F3F1FF"/>
<path d="M74.965 81.7242L73.216 46.8589L82.8857 46.3739L84.6346 81.2391L74.965 81.7242ZM77.8481 42.1209C76.4105 42.193 75.1533 41.7782 74.0765 40.8765C73.014 39.9589 72.449 38.8267 72.3815 37.4799C72.3147 36.1482 72.7643 34.9803 73.7303 33.9761C74.7108 32.956 75.9198 32.4099 77.3574 32.3378C78.7949 32.2656 80.045 32.6884 81.1074 33.606C82.1843 34.5077 82.7561 35.6244 82.8229 36.9561C82.8904 38.3029 82.434 39.4863 81.4536 40.5064C80.4875 41.5106 79.2857 42.0488 77.8481 42.1209ZM92.5622 80.8415L90.2302 34.3545L121.554 32.7831L121.961 40.8866L100.465 41.9649L101.021 53.0419L120.905 52.0444L121.312 60.1479L101.427 61.1453L101.984 72.245L123.571 71.1621L123.977 79.2656L92.5622 80.8415ZM140.177 58.2458L141.189 78.4022L131.519 78.8873L129.77 44.022L138.986 43.5597L139.294 49.7111L139.703 49.6906C140.373 47.6241 141.586 45.9552 143.343 44.6838C145.099 43.3972 147.271 42.689 149.858 42.5592C152.279 42.4378 154.417 42.8615 156.271 43.8305C158.125 44.7994 159.6 46.2424 160.698 48.1596C161.795 50.0616 162.411 52.3669 162.547 55.0756L163.66 77.275L153.991 77.76L152.964 57.2858C152.872 55.1513 152.243 53.5141 151.079 52.374C149.913 51.2189 148.362 50.6898 146.425 50.787C145.124 50.8523 143.988 51.1899 143.017 51.7999C142.062 52.4092 141.331 53.265 140.825 54.3675C140.333 55.4541 140.117 56.7469 140.177 58.2458ZM187.068 76.7834C183.543 76.9603 180.456 76.3642 177.808 74.9951C175.175 73.6102 173.095 71.6058 171.567 68.9821C170.039 66.3432 169.186 63.2381 169.006 59.6669C168.826 56.0653 169.364 52.8828 170.621 50.1194C171.877 47.3409 173.747 45.1384 176.229 43.512C178.725 41.8697 181.737 40.9601 185.263 40.7833C188.788 40.6064 191.868 41.2104 194.501 42.5954C197.149 43.9645 199.237 45.9684 200.765 48.6073C202.292 51.2311 203.146 54.3437 203.327 57.9452C203.506 61.5165 202.967 64.6914 201.711 67.47C200.454 70.2334 198.577 72.4362 196.081 74.0785C193.598 75.7049 190.594 76.6066 187.068 76.7834ZM186.738 69.2906C188.342 69.2101 189.659 68.689 190.687 67.7271C191.716 66.7501 192.462 65.4535 192.927 63.8373C193.407 62.2203 193.597 60.3979 193.495 58.3702C193.393 56.3424 193.023 54.5481 192.383 52.9873C191.758 51.4257 190.886 50.2103 189.765 49.3412C188.644 48.472 187.282 48.0776 185.678 48.1581C184.059 48.2393 182.72 48.7691 181.662 49.7476C180.618 50.7254 179.857 52.0227 179.377 53.6397C178.911 55.256 178.73 57.078 178.832 59.1057C178.933 61.1335 179.296 62.9282 179.921 64.4897C180.56 66.0506 181.448 67.2652 182.584 68.1336C183.734 68.9862 185.119 69.3718 186.738 69.2906ZM227.278 39.1308L227.642 46.3944L206.646 47.4476L206.282 40.184L227.278 39.1308ZM210.629 31.5918L220.299 31.1067L221.93 63.6113C221.974 64.5041 222.145 65.1934 222.443 65.6791C222.74 66.1496 223.135 66.4711 223.629 66.6436C224.138 66.8153 224.718 66.8848 225.369 66.8521C225.823 66.8294 226.275 66.7688 226.725 66.6703C227.175 66.5567 227.519 66.4712 227.759 66.4137L229.641 73.5329C229.164 73.7085 228.492 73.9167 227.624 74.1574C226.757 74.4133 225.697 74.5954 224.443 74.7038C222.117 74.9115 220.059 74.7038 218.268 74.0806C216.492 73.4567 215.082 72.42 214.038 70.9704C212.995 69.5209 212.423 67.6532 212.324 65.3675L210.629 31.5918ZM250.875 73.5828C247.288 73.7627 244.165 73.1912 241.504 71.8682C238.858 70.5294 236.772 68.5557 235.245 65.9471C233.718 63.3234 232.862 60.1729 232.677 56.4957C232.498 52.9093 233.036 49.7268 234.292 46.9483C235.548 44.1697 237.402 41.9604 239.853 40.3204C242.32 38.6796 245.263 37.7735 248.683 37.6019C250.983 37.4865 253.143 37.7499 255.162 38.3919C257.196 39.0181 258.992 40.0279 260.548 41.4214C262.12 42.8141 263.378 44.6018 264.322 46.7845C265.265 48.9521 265.811 51.5189 265.959 54.4848L266.093 57.1406L236.652 58.6174L236.352 52.6249L256.69 51.6047C256.62 50.2125 256.256 48.9944 255.596 47.9504C254.937 46.9063 254.055 46.1086 252.95 45.5572C251.86 44.9899 250.611 44.7416 249.204 44.8122C247.736 44.8858 246.452 45.2915 245.351 46.0294C244.264 46.7514 243.432 47.6958 242.853 48.8627C242.274 50.0144 242.011 51.2791 242.065 52.6569L242.351 58.3543C242.437 60.0794 242.83 61.554 243.529 62.7781C244.242 64.0015 245.206 64.924 246.421 65.5458C247.635 66.1675 249.052 66.4378 250.671 66.3566C251.746 66.3027 252.722 66.102 253.599 65.7546C254.477 65.4072 255.219 64.9149 255.824 64.2777C256.429 63.6405 256.876 62.8747 257.165 61.9803L266.138 62.1219C265.792 64.2935 264.955 66.2166 263.628 67.8912C262.316 69.55 260.577 70.8811 258.413 71.8848C256.262 72.8725 253.75 73.4385 250.875 73.5828Z" fill="#4A3AFF"/>
<path d="M337.342 85.8381C336.162 85.8381 334.982 85.9367 333.852 86.0353C333.557 86.0353 333.213 86.2325 332.918 86.1832C331.591 85.8874 330.362 86.1832 329.085 86.4297C328.396 86.5777 327.659 86.5283 327.02 86.2325C326.725 86.0846 326.627 86.1339 326.529 86.3804C326.48 86.5777 326.332 86.7256 326.136 86.627C325.251 86.4297 324.415 86.1832 323.531 86.479C323.383 86.5283 323.187 86.3804 322.99 86.3311C322.843 86.2818 322.548 86.1832 322.499 86.2818C321.958 86.9721 321.417 86.2818 320.926 86.3804C320.385 86.479 320.041 87.0707 319.402 87.1693C318.96 87.2679 318.518 87.2679 318.026 87.2679C317.682 87.2679 317.289 87.2679 316.945 87.3665C316.306 87.5144 315.667 87.9581 315.126 87.1693C315.028 87.0214 314.782 87.12 314.635 87.1693C313.848 87.3172 313.013 87.0707 312.325 87.8102C312.128 88.0567 311.538 88.2046 311.047 87.9581C310.801 87.8595 310.457 87.8102 310.261 87.9581C309.327 88.4018 308.295 88.0567 307.361 88.3032C306.034 88.6483 304.658 88.2539 303.331 88.8455C302.741 89.1413 301.905 89.092 301.315 88.9441C300.332 88.7469 299.595 88.7469 298.858 89.4371C298.514 89.733 297.973 90.1767 297.531 89.4371C297.482 89.3385 297.236 89.3385 297.138 89.3385C296.401 89.9795 295.516 89.6344 294.68 89.6344C294.189 89.6344 293.845 89.6837 293.746 90.3246C293.697 90.8669 293.55 90.9162 293.157 90.4232C292.96 90.1767 292.813 90.1767 292.616 90.2753C292.37 90.3739 292.174 90.5711 291.879 90.5218C290.748 90.4725 290.454 90.5218 289.176 91.1134C289.077 91.1627 288.979 91.1627 288.93 91.1134C288.291 91.0148 287.799 91.2613 287.357 91.705C287.062 92.0008 286.718 92.0008 286.276 91.705C285.342 91.0641 285.293 91.1134 284.31 91.9022C283.917 92.198 283.474 92.2473 283.081 92.4445C282.835 92.5431 282.688 92.4445 282.541 92.198C282.147 91.5078 281.705 91.7543 281.459 92.2966C281.214 92.8883 280.771 92.7896 280.378 92.691C280.181 92.6417 280.034 92.4445 279.837 92.2966C279.542 92.0994 279.198 92.0501 279.051 92.4938C278.756 93.3813 278.265 93.2334 277.576 92.9869C276.741 92.691 275.905 92.4938 275.168 93.2334C274.185 94.1701 273.006 94.1701 271.826 93.7264C271.335 93.5292 270.057 93.7757 269.909 94.2194C269.664 94.8603 269.319 94.7124 268.877 94.6631C268.435 94.6631 267.992 94.3673 267.55 94.6138C266.862 94.9589 266.174 95.3533 265.338 94.9589C265.191 94.8603 265.142 95.0082 265.043 95.1561C264.503 95.8463 263.815 95.8956 262.979 95.6491C262.242 95.4519 261.554 95.4026 260.768 95.797C260.079 96.1422 259.244 96.1915 258.458 96.3394C258.212 96.3887 257.868 96.438 257.671 96.2901C256.983 95.7477 256.295 96.0436 255.656 96.3394C254.919 96.6845 254.231 96.8817 253.444 96.7338C252.953 96.6352 252.609 96.7338 252.461 97.2268C252.265 97.9663 251.872 97.7198 251.429 97.5719C250.987 97.424 250.397 97.0789 250.053 97.5719C249.758 98.0156 249.66 97.917 249.218 97.7691C248.185 97.3747 247.006 97.3254 246.121 97.8677C245.531 98.2128 245.089 98.2128 244.548 98.1635C244.106 98.1142 243.664 98.1142 243.172 98.1635C243.025 98.1635 242.779 98.1635 242.779 98.41C242.828 98.8044 242.828 99.1989 242.288 99.1989C241.944 99.1989 241.55 99.3468 241.255 99.051C241.01 98.8044 240.666 98.6072 240.42 98.8537C239.437 99.6919 238.307 99.4454 237.176 99.4947C236.783 99.4947 236.439 99.5933 236.046 99.7905C234.473 100.53 232.9 101.122 231.082 100.974C230.59 100.924 229.804 100.234 229.607 101.417C229.558 101.615 229.312 101.368 229.165 101.319C228.133 100.974 227.15 101.565 226.118 101.516C225.724 102.354 224.594 101.861 224.102 102.551C224.004 102.699 223.758 102.65 223.611 102.551C223.267 102.256 223.021 102.403 222.628 102.551C221.891 102.896 220.908 102.65 220.416 103.537C220.367 103.587 220.22 103.636 220.171 103.587C219.237 103.094 218.205 103.685 217.172 103.34C216.583 103.143 215.6 102.896 215.157 103.784C214.813 104.474 214.224 104.523 213.634 104.77C212.798 105.115 211.914 105.115 211.029 105.214C210.341 105.312 209.604 104.819 209.063 105.657C209.014 105.707 208.719 105.559 208.571 105.559C208.326 105.559 208.08 105.362 207.785 105.509C206.016 106.397 204.001 106.348 202.182 107.136C201.641 107.383 200.855 107.482 200.216 107.038C200.118 106.939 199.774 106.939 199.725 107.038C199.036 107.777 198.152 107.482 197.415 107.531C196.923 107.58 196.628 107.679 196.235 107.975C195.547 108.566 194.711 108.911 193.778 108.418C193.335 108.172 192.893 108.122 192.696 108.714C192.598 109.01 192.303 109.158 192.057 109.01C191.418 108.615 190.681 108.961 190.042 108.714C189.846 108.665 189.6 108.615 189.551 108.813C189.158 109.848 188.224 109.601 187.486 109.749C187.241 109.799 186.995 109.799 186.848 109.897C186.012 110.785 184.783 110.39 183.8 110.982C183.014 111.475 181.884 110.933 180.851 111.13C180.556 111.179 180.163 110.834 179.721 111.031C179.229 111.278 179.868 111.869 179.328 112.067C178.836 112.067 178.394 111.475 177.804 111.82C176.969 112.362 175.936 112.412 175.003 112.707C174.56 112.855 174.216 113.25 173.872 112.51C173.774 112.264 173.233 112.313 173.135 112.707C172.889 113.546 172.496 113.299 171.808 113.2C171.366 113.151 171.022 113.003 170.678 112.855C169.94 112.658 170.235 113.546 169.793 113.644C169.596 113.694 169.4 113.694 169.252 113.644C168.515 113.348 167.974 113.743 167.483 114.137C166.844 114.68 166.254 114.877 165.369 114.68C164.534 114.482 164.288 115.764 163.354 115.616C163.207 115.616 163.059 115.666 162.961 115.616C162.175 115.222 161.634 115.813 160.995 116.109C160.356 116.454 159.619 115.616 158.882 116.159C158.538 116.405 158.194 116.553 157.751 116.307C157.555 116.208 157.26 116.208 157.112 116.405C156.474 117.243 155.392 117.194 154.655 117.687C154.262 117.49 154.409 116.8 153.819 116.898C153.426 116.997 152.787 116.849 152.738 117.293C152.492 118.377 151.854 118.131 151.067 118.18C150.477 118.229 149.937 118.476 149.298 118.18C149.052 118.081 148.757 118.377 148.708 118.624C148.61 119.067 148.315 119.018 147.971 118.969C147.381 118.87 146.889 118.969 146.496 119.462C146.251 119.758 145.956 119.856 145.513 119.856C144.825 119.807 144.039 119.856 143.547 120.004C142.81 120.251 142.22 120.3 141.483 120.103C140.697 119.906 140.402 120.152 139.959 121.039C139.91 121.138 139.91 121.385 139.763 121.335C139.075 121.089 138.387 121.68 137.748 121.385C137.06 121.089 136.617 121.335 136.175 121.73C135.634 122.272 135.045 122.518 134.209 122.42C133.668 122.371 133.029 122.075 132.489 122.321C131.948 122.568 131.506 123.061 130.867 122.617C130.228 123.455 128.852 122.469 128.311 123.603C128.213 123.751 128.016 123.603 127.869 123.505C126.935 122.864 126.935 122.864 126.149 123.652C125.903 123.948 125.608 124.145 125.166 124.195C124.379 124.343 123.544 124.293 122.856 124.491C121.676 124.786 120.546 124.688 119.464 124.392C118.629 124.145 117.793 124.589 116.958 124.441C116.81 124.441 116.565 124.54 116.515 124.688C116.073 125.723 115.287 126.561 115.238 127.794C115.238 128.09 115.238 128.385 115.532 128.484C116.515 128.878 117.253 129.864 118.531 129.618C119.071 129.519 119.808 129.273 120.3 129.963C120.349 130.012 120.595 130.012 120.693 129.963C121.725 129.125 122.806 129.519 123.937 129.766C124.232 129.864 124.674 129.914 124.772 129.569C125.018 128.928 125.411 129.322 125.755 129.322C127.132 129.371 128.606 129.618 129.638 128.336C129.786 128.139 129.933 127.942 130.179 128.04C130.818 128.287 131.457 128.484 132.096 128.04C132.833 128.533 133.324 128.04 133.914 127.695C134.062 127.597 134.356 127.695 134.553 127.744C135.241 127.892 135.782 127.942 136.47 127.597C137.011 127.301 137.895 127.843 138.583 127.449C138.927 127.251 139.222 127.202 139.615 127.35C140.009 127.498 140.353 127.498 140.451 126.906C140.5 126.561 140.844 126.611 141.139 126.66C141.385 126.758 141.631 126.857 141.925 126.758C143.154 126.413 144.383 125.97 145.464 125.378C146.103 125.033 146.742 125.033 147.381 124.984C147.774 123.998 148.708 124.441 149.249 124.54C150.281 124.638 151.264 124.244 152.247 124.195C153.23 124.145 154.311 123.554 155.392 123.357C155.736 123.307 156.129 123.11 156.424 122.765C156.867 122.272 156.768 123.455 157.309 123.209C157.456 123.11 157.653 123.11 157.85 123.11C159.373 122.864 160.848 122.568 162.273 122.075C163.109 121.779 164.042 121.631 164.485 120.694C164.632 120.399 164.878 120.448 165.271 120.497C165.959 120.645 166.795 121.089 167.335 120.152C167.532 119.906 167.827 120.004 168.073 120.053C168.957 120.251 169.793 119.56 170.727 119.955C170.923 120.053 170.923 119.56 171.12 119.462C171.513 119.265 171.808 118.772 172.398 119.166C173.282 119.758 173.381 119.708 173.971 118.87C174.708 117.884 175.691 117.588 176.821 117.736C177.902 117.884 178.984 117.736 179.967 117.293C180.507 117.046 180.802 116.947 181.245 117.391C181.539 117.736 182.228 117.835 182.277 117.44C182.424 116.454 183.211 116.356 183.751 116.405C184.341 116.454 184.685 115.961 185.373 116.06C186.7 116.307 188.175 116.75 189.403 115.616C189.502 115.518 189.747 115.518 189.944 115.468C190.779 115.271 191.664 115.222 192.5 115.222C192.942 115.222 193.532 115.37 193.778 114.975C194.318 114.088 195.449 114.285 196.038 113.546C196.088 113.447 196.333 113.348 196.382 113.398C196.972 113.891 197.611 113.348 198.152 113.496C199.331 113.891 200.019 112.658 201.101 112.757C201.445 112.017 202.084 112.362 202.526 112.51C203.312 112.757 203.902 112.56 204.59 112.165C204.984 111.919 205.426 111.426 206.016 111.623C207.49 112.067 208.817 111.672 210.046 110.785C210.144 110.686 210.292 110.538 210.39 110.588C211.52 110.982 212.454 110.144 213.486 110.193C214.322 110.242 215.157 109.848 215.944 110.39C216.288 110.637 216.583 110.39 216.927 110.144C217.467 109.7 218.008 109.207 218.843 109.601C219.089 109.749 219.384 109.601 219.482 109.256C219.532 109.01 219.581 108.665 219.925 108.665C220.564 108.665 221.153 108.27 221.792 108.418C222.874 108.665 223.906 109.108 224.84 108.172C224.84 108.172 224.938 108.221 224.987 108.172C226.019 107.876 227.101 107.777 228.133 107.629C228.673 107.531 229.116 107.284 229.656 107.629C229.951 107.827 230.295 107.629 230.492 107.334C231.229 106.348 231.229 106.298 232.31 106.742C232.556 106.841 232.753 106.939 232.949 106.742C233.637 105.953 234.719 106.348 235.505 105.855C235.702 105.756 235.996 105.707 236.242 105.904C236.832 106.298 237.422 106.15 238.061 105.904C238.552 105.707 239.044 105.214 239.634 105.707C239.781 105.855 240.125 105.657 240.174 105.411C240.272 104.721 240.715 104.819 241.157 104.918C241.55 105.016 241.944 105.066 242.337 104.869C243.271 104.425 244.45 104.622 245.236 103.735C245.335 103.587 245.581 103.735 245.728 103.784C245.974 103.882 246.318 103.932 246.514 103.784C247.448 103.192 248.529 103.439 249.562 103.242C250.102 103.143 250.643 103.143 251.184 102.798C251.822 102.403 252.658 102.305 253.444 102.551C253.788 102.65 254.182 102.798 254.476 102.502C255.312 101.664 256.246 102.058 257.131 102.354C257.425 102.453 257.573 102.453 257.819 102.354C258.507 102.058 259.195 101.664 259.981 101.664C261.013 101.664 262.045 101.417 263.028 101.171C264.011 100.974 264.945 100.826 265.928 100.678C266.616 100.579 267.501 101.27 267.894 100.086C267.894 100.037 267.992 100.037 267.992 100.037C268.582 100.185 269.221 100.382 269.762 99.7905C270.597 100.727 271.482 100.382 272.318 99.8398C272.367 99.8398 272.416 99.8398 272.465 99.8891C272.907 99.9877 273.251 99.8398 273.595 99.544C274.087 99.1496 274.726 99.1496 275.365 99.051C276.643 98.903 277.871 98.6565 279.198 98.7058C280.034 98.7551 280.82 98.1635 281.607 97.8184C282.196 97.5719 282.491 97.5226 282.885 97.917C283.278 98.3114 283.72 98.4593 284.015 97.9663C284.703 96.8817 285.834 97.0789 286.816 96.9803C287.554 96.8817 288.34 97.3254 288.93 96.5859C288.979 96.5366 289.225 96.5366 289.323 96.5859C289.815 97.0296 290.257 96.6845 290.699 96.438C291.289 96.1422 291.928 96.0436 292.518 96.2408C293.058 96.438 293.452 96.4873 293.746 95.9449C293.845 95.7477 294.14 95.6984 294.336 95.8464C294.779 96.2408 295.172 96.0929 295.565 95.7477C295.909 95.5012 296.253 95.304 296.695 95.5012C296.99 95.6491 297.285 95.5012 297.58 95.3533C298.612 94.9589 299.792 94.9589 300.775 94.3673C300.824 94.318 300.971 94.318 301.021 94.3673C301.758 95.1068 302.348 94.4659 302.986 94.2194C303.38 94.0715 303.773 93.7757 304.215 94.2687C304.461 94.5152 304.854 94.5152 305.1 94.318C305.346 94.0715 305.591 94.0222 305.935 94.1208C306.427 94.2687 306.869 94.0222 307.312 93.7757C307.901 93.4306 308.786 92.839 309.228 93.0362C310.015 93.332 310.359 93.3813 310.949 92.7403C311.342 92.3459 311.932 93.2334 312.325 92.8883C312.718 92.5431 312.915 92.2473 313.554 92.2966C315.028 92.3459 316.453 91.8529 317.731 91.1627C318.321 90.8176 318.862 90.3246 319.55 91.0148C319.746 91.212 319.992 91.1627 320.139 90.9655C320.385 90.6204 320.68 90.719 320.975 90.8176C321.811 91.0641 322.597 90.7683 323.334 90.3739C323.826 90.1274 324.366 89.9795 324.809 89.7823C325.742 89.3878 326.873 89.6344 327.659 89.1413C329.232 88.1553 331.001 88.5497 332.672 88.0567C333.115 87.9088 333.508 87.5637 333.999 87.5637C336.26 87.5637 338.325 86.7256 340.536 86.2818C342.453 85.8874 344.321 85.4437 346.238 85C344.763 85 343.289 85.1479 341.814 85.2958C340.34 85.7395 338.816 85.8381 337.342 85.8381Z" fill="#F3F1FF"/>
<path d="M309.409 27.5313C309.507 27.3996 309.605 27.2679 309.703 27.1362C309.737 27.1251 309.754 27.1018 309.764 27.0725C309.796 27.0122 309.82 26.9458 309.852 26.8855C309.928 26.7494 309.996 26.6072 310.072 26.4711C310.228 26.2619 310.238 25.9925 310.166 25.7824C310.03 25.3681 310.212 25.1064 310.45 24.838C310.534 24.828 310.591 24.7859 310.582 24.6952C310.55 24.6709 310.525 24.6526 310.498 24.6206C310.531 24.6449 310.555 24.6631 310.582 24.6952C310.998 24.3066 311.213 23.7799 311.566 23.3566C311.715 23.3106 311.787 23.196 311.805 23.0528C311.839 23.0417 311.851 23.0262 311.846 22.9985C312.247 22.647 312.463 22.1696 312.75 21.733C312.882 21.5902 313.073 21.5038 313.129 21.2924C313.17 21.2028 313.22 21.1192 313.261 21.0296C313.442 20.9233 313.557 20.7684 313.616 20.5709C313.707 20.4823 313.882 20.4684 313.851 20.2886C314.212 19.7867 314.579 19.277 314.932 18.7691C315.172 18.5145 315.419 18.2521 315.659 17.9975C315.766 17.8365 315.882 17.6816 315.989 17.5205C316.481 16.9112 316.959 16.3036 317.45 15.6943C317.672 15.4137 317.728 15.2024 317.335 14.946C317.158 14.8261 316.959 14.7017 316.808 14.4092C316.577 13.9359 316.538 13.3407 316.038 12.956C315.619 12.6322 315.156 12.4195 314.71 12.1482C314.305 12.1473 314.117 11.8028 313.854 11.5944C313.829 11.5762 313.796 11.5519 313.772 11.5336C313.311 11.2148 312.81 10.9855 312.278 10.8304C312.101 10.5904 311.807 10.4916 311.59 10.3059C311.528 10.2357 311.46 10.1732 311.351 10.2004C311.288 10.1656 311.231 10.123 311.168 10.0882C310.945 9.91024 310.715 9.48612 310.459 10.0178C310.429 10.0073 310.39 9.99078 310.36 9.98028C310.309 9.92998 310.265 9.88575 310.214 9.83545C310.21 9.48311 309.968 9.39918 309.677 9.3634C309.583 9.26887 309.488 9.17434 309.347 9.14179C309.281 9.04392 309.199 8.98313 309.075 8.96274C308.873 8.82458 308.662 8.71574 308.416 8.68878C308.13 8.56062 307.904 8.31959 307.592 8.244C307.493 8.20645 307.402 8.17498 307.303 8.13742C306.994 7.99103 306.745 7.74558 306.452 7.57595C306.176 7.41847 305.914 7.25933 305.638 7.10185C305.522 6.96751 305.401 6.84091 305.209 6.84269C305.176 6.81837 305.152 6.80013 305.119 6.77581C305.012 6.64755 304.878 6.57185 304.721 6.52714C304.666 6.49841 304.609 6.45586 304.554 6.42712C304.535 6.40114 304.514 6.36133 304.495 6.33534C304.198 6.05342 303.722 5.97627 303.548 5.54548C303.511 5.57814 303.472 5.59697 303.435 5.62962C303.322 5.47371 303.224 5.31613 303.271 5.13412C303.323 4.94436 303.183 4.87641 303.055 4.79296C303.028 4.7609 303.009 4.73491 302.983 4.70284C303.199 4.22536 302.645 4.55979 302.601 4.3463L302.594 4.30482C302.641 4.20744 302.712 4.1283 302.546 4.02828C302.412 3.95258 302.343 3.92552 302.283 4.0738C302.132 4.14137 301.947 4.18463 301.966 4.41527C301.965 4.45067 301.964 4.48608 301.963 4.52148C301.964 4.48608 301.973 4.45675 301.966 4.41527C301.915 4.4496 301.843 4.52874 301.813 4.51825C301.281 4.27851 301.052 4.60223 300.815 4.95527C300.157 5.9231 299.654 6.95721 299.254 8.05653C299.23 8.12292 299.22 8.18764 299.196 8.25404C298.876 8.87097 298.562 9.48016 298.258 10.1093C298.152 10.3195 298.098 10.5801 297.987 10.7627C297.584 11.3896 297.276 12.0757 296.966 12.7479C296.923 12.873 296.742 12.8947 296.763 13.0545C296.683 13.1276 296.609 13.1929 296.631 13.3173C296.589 13.4069 296.556 13.5027 296.515 13.5923C296.413 13.6609 296.335 13.7478 296.409 13.8872C296.411 13.9364 296.404 13.9796 296.405 14.0288C296.166 14.1279 295.974 14.2497 296.183 14.5494C295.961 14.6253 295.872 14.8123 295.746 14.9828C295.477 15.3607 295.501 15.8729 295.17 16.2161C294.497 15.8237 293.776 15.5996 293.04 15.4125C292.742 15.3353 292.407 15.3753 292.136 15.1609C291.344 14.5711 290.501 14.6297 289.622 14.7702C289.159 14.8468 288.84 15.2237 288.349 15.1836C287.764 15.2536 287.448 15.729 287.034 16.0467C286.336 16.5748 285.944 17.3909 285.289 17.9633C285.229 18.0269 285.177 18.0967 285.112 18.168C285.047 18.2887 284.993 18.4292 284.904 18.5316C284.318 19.251 283.858 20.0047 283.997 21.0113C284.005 21.222 283.866 21.6126 284.081 21.5799C284.574 21.5137 284.507 21.8252 284.586 22.0768C284.566 22.1216 284.537 22.1604 284.51 22.2129C284.339 22.2899 284.131 22.3642 284.364 22.5975C284.303 22.6965 284.337 22.77 284.438 22.8214C284.657 23.3457 285.019 23.7963 285.26 24.3249C285.367 24.5732 285.471 24.9277 285.806 25.0569C285.975 25.2908 286.143 25.5247 286.32 25.7646C286.363 25.8089 286.406 25.8531 286.455 25.8896C286.588 26.0007 286.721 26.1118 286.854 26.2229C286.96 26.3019 287.067 26.3809 287.181 26.466C287.534 26.7413 287.864 27.0829 288.346 27.1169C288.454 27.2452 288.601 27.2346 288.739 27.2533C288.994 27.371 289.227 27.2796 289.465 27.2158C289.643 27.2157 289.818 27.2018 289.928 27.0546C289.936 27.0607 289.939 27.0745 289.939 27.0745C290.279 27.2314 290.59 27.1377 290.891 26.9887C291.185 26.7983 291.569 26.8794 291.855 26.6828C292.001 26.7076 292.123 26.6296 292.239 26.5592C292.492 26.543 292.679 26.3936 292.888 26.2839C292.965 26.3171 293.01 26.2905 293.048 26.2224C293.201 26.1195 293.246 25.8882 293.453 25.8494C293.799 25.7939 293.744 25.5605 293.689 25.3271C294.09 25.505 294.376 25.393 294.561 25.0251C294.636 24.9598 294.723 24.8928 294.797 24.8275C294.889 24.7389 294.972 24.6443 295.063 24.5557C295.318 24.2995 295.572 24.0432 295.82 23.7947C295.92 23.7122 295.965 23.601 295.985 23.4716C296.131 23.3271 296.282 23.1749 296.428 23.0305C296.757 22.5889 297.099 22.1456 297.42 21.6979C297.518 21.5662 297.57 21.4119 297.382 21.272C297.367 21.2245 297.345 21.1847 297.33 21.1371C297.428 21.0054 297.526 20.8737 297.633 20.7481C297.699 20.7613 297.806 20.8049 297.815 20.7756C298.016 20.4552 297.877 20.1472 297.722 19.8271C297.578 19.5268 297.38 19.5363 297.168 19.6675C297.052 19.7378 297.035 19.6765 296.992 19.5968C296.859 19.1964 297.248 19.3052 297.404 19.1806C297.742 19.2883 297.876 18.9901 298.104 18.871C298.365 18.7763 298.097 18.5048 298.259 18.3725C298.384 18.3929 298.394 18.3282 298.371 18.2392C298.381 18.2098 298.396 18.1728 298.405 18.1435C298.438 18.0477 298.471 17.952 298.504 17.8563C298.531 17.8038 298.563 17.7434 298.581 17.6848C298.658 17.6333 298.668 17.5686 298.637 17.4735C298.678 17.4192 298.712 17.3728 298.753 17.3185C298.769 17.2106 298.756 17.0923 298.858 17.0236C298.916 16.9462 298.968 16.8764 299.025 16.799C299.006 16.4837 299.261 16.3121 299.39 16.0708C299.843 15.2403 300.297 14.4098 300.712 13.5627C300.953 13.068 301.28 12.6126 301.412 12.0605C301.523 11.9625 301.557 11.8314 301.545 11.6776C301.609 11.557 301.688 11.4347 301.752 11.3141C301.965 11.0628 302.155 10.8072 302.121 10.4443C302.367 9.97735 302.643 9.52085 302.857 9.02954C303.121 8.41927 303.119 8.40544 303.764 8.7657C304.353 9.37269 305.012 9.85131 305.816 10.1008C305.932 9.91049 305.605 9.78734 305.772 9.6827C305.966 9.57472 306.029 9.81419 306.14 9.92087C306.165 9.93911 306.183 9.9651 306.21 9.99716C306.023 10.2313 306.095 10.3568 306.344 10.5668C306.969 11.0919 307.86 11.1052 308.429 11.7216C308.515 11.8101 308.675 11.7486 308.78 11.6583C308.893 11.6942 308.849 11.9747 309.078 11.8556C309.135 11.8982 309.198 11.933 309.247 11.9695C309.408 12.2465 309.703 12.3453 309.958 12.463C311.211 13.0469 312.382 13.7747 313.554 14.5024C313.298 14.5894 313.517 15.0291 313.172 15.0492C312.878 15.035 312.862 15.3121 312.897 15.4349C312.993 15.6987 312.906 15.7302 312.68 15.7431C312.469 15.7543 312.355 15.8384 312.581 16.0302C312.616 16.153 312.522 16.2277 312.489 16.3235C312.328 16.2157 312.214 16.2152 312.088 16.3856C311.759 16.8272 311.405 17.2506 311.06 17.68C310.616 18.1566 310.344 18.7608 309.949 19.2737C309.9 19.3573 309.842 19.4348 309.798 19.5106C309.751 19.5233 309.681 19.5317 309.672 19.561C309.298 20.3185 308.698 20.9195 308.245 21.63C308.083 21.8823 307.887 22.1458 307.633 22.282C307.405 22.401 307.354 21.9414 307.082 21.9316C307.068 21.9333 307.046 21.9289 307.037 21.9228C306.814 21.6602 306.618 21.9236 306.404 21.921C306.285 21.8082 306.502 21.7046 306.416 21.5808C305.965 21.6419 305.476 21.4464 305.105 21.8084C304.798 21.7604 304.575 21.9918 304.294 22.0113C303.724 22.2135 303.295 22.653 302.767 22.8856C302.098 23.1703 301.655 23.7315 301.029 24.0604C300.787 24.0611 300.722 24.2171 300.722 24.4218C300.64 24.481 300.549 24.5342 300.461 24.6012C300.353 24.5929 300.296 24.635 300.352 24.7484C300.302 24.8319 300.206 24.8928 300.283 25.0106C300.133 25.0074 300.021 25.0561 299.934 25.1723C299.54 25.4807 299.286 25.9062 298.943 26.2648C298.794 26.3462 298.827 26.5398 298.719 26.6516C298.396 27.2547 297.583 27.6485 297.982 28.5603C297.985 28.5742 297.958 28.6267 297.936 28.6223C297.578 28.6087 297.783 28.8453 297.773 28.9947C297.734 29.5921 297.908 30.1429 298.246 30.6599C298.292 30.8026 298.381 30.9048 298.509 30.9883C298.575 31.1215 298.655 31.2531 298.72 31.3864C298.821 31.5578 298.922 31.7292 299.015 31.8946L299.023 31.9006C299.017 31.9084 299.003 31.9101 298.997 31.9178C298.986 31.9333 298.982 31.9549 298.979 31.9765C299.18 32.5239 299.678 32.8102 300.053 33.2098C300.393 33.5714 300.831 33.6812 301.301 33.5614C301.343 33.5564 301.385 33.5514 301.427 33.5464C301.653 33.6182 301.796 33.4599 301.97 33.3968C302.256 33.2849 302.553 33.1929 302.875 33.2884C302.916 33.2341 302.948 33.1738 302.988 33.1196L302.994 33.1118C303.314 33.3135 303.517 33.1762 303.661 32.8979C303.715 32.842 303.757 32.7524 303.864 32.796C304.187 32.9761 304.299 32.6381 304.506 32.5639C304.64 32.4703 304.767 32.3845 304.892 32.2849C304.972 32.2118 305.06 32.1448 305.139 32.0718C305.398 31.9632 305.597 31.7982 305.772 31.5796C305.873 31.5464 305.982 31.5192 306.027 31.408C306.093 31.3366 306.159 31.2652 306.219 31.2016C306.338 31.1097 306.457 31.0178 306.577 30.9259L306.596 30.9165C306.694 30.9048 306.748 30.8489 306.753 30.7565C306.794 30.7023 306.828 30.6558 306.869 30.6016C306.935 30.5302 307.001 30.4588 307.061 30.3952C307.22 30.3691 307.249 30.2103 307.332 30.1157C307.696 29.9169 307.704 29.429 308.068 29.2302C308.225 29.1549 308.345 29.063 308.197 28.8689C308.17 28.8369 308.152 28.8109 308.131 28.7711C308.74 28.5146 309.084 28.0359 309.409 27.5313ZM302.781 5.14326C302.798 5.15542 302.806 5.1615 302.817 5.18141C302.806 5.1615 302.79 5.14934 302.781 5.14326ZM289.865 22.7081C289.957 22.7042 290.052 22.6787 290.144 22.6747C290.044 22.6726 289.949 22.6981 289.865 22.7081ZM301.954 6.93591C301.932 7.01613 301.911 7.09635 301.881 7.17049C301.919 7.10243 301.932 7.01613 301.954 6.93591C302.232 7.02259 302.365 6.92903 302.467 6.77575C302.365 6.92903 302.24 7.02867 301.954 6.93591ZM297.364 13.526C297.4 13.5287 297.438 13.5453 297.462 13.5635C297.438 13.5453 297.408 13.5348 297.364 13.526ZM303.418 5.61747C303.299 5.5047 303.129 5.54629 302.98 5.50766C303.134 5.53854 303.299 5.5047 303.418 5.61747ZM289.909 27.0286C289.924 26.9915 289.942 26.9683 289.961 26.9589C289.936 26.976 289.918 26.9993 289.909 27.0286ZM290.3 26.6572C290.286 26.6589 290.272 26.6605 290.25 26.6561C290.278 26.6528 290.286 26.6589 290.3 26.6572C290.32 26.6478 290.34 26.6384 290.357 26.6151C290.345 26.6306 290.32 26.6478 290.3 26.6572ZM290.441 26.4851C290.47 26.4464 290.493 26.4154 290.532 26.3965C290.493 26.4154 290.464 26.4541 290.441 26.4851ZM292.195 26.1411C292.093 26.0897 292.062 26.03 292.092 25.9559C292.068 26.0222 292.107 26.088 292.195 26.1411C292.139 26.2324 292.132 26.3109 292.146 26.3939C292.132 26.3109 292.145 26.2246 292.195 26.1411ZM296.337 21.2771C296.321 21.2649 296.305 21.2528 296.288 21.2406C296.305 21.2528 296.329 21.271 296.337 21.2771ZM296.462 21.3821C296.462 21.3821 296.47 21.3882 296.479 21.3943L296.462 21.3821ZM296.495 21.4064L296.479 21.3943C296.487 21.4004 296.495 21.4064 296.495 21.4064C296.521 21.4739 296.544 21.5275 296.546 21.5768C296.544 21.5275 296.527 21.4662 296.495 21.4064ZM297.158 20.9248C297.152 20.9326 297.133 20.942 297.119 20.9436C297.029 20.9614 296.872 20.8321 296.817 20.9234C296.596 20.7592 296.47 20.8942 296.331 20.9956C296.47 20.8942 296.602 20.7515 296.817 20.9234C296.866 20.8398 297.029 20.9614 297.119 20.9436C297.139 20.9342 297.152 20.9326 297.158 20.9248ZM297.188 20.766C297.038 20.6428 296.778 20.6175 296.66 20.4693C296.784 20.6097 297.038 20.6428 297.188 20.766ZM292.594 25.7758C292.484 25.7183 292.369 25.6686 292.259 25.6112C292.367 25.6548 292.476 25.7122 292.594 25.7758ZM295.748 20.0069C295.737 19.987 295.732 19.9593 295.722 19.9394C295.727 19.9671 295.737 19.987 295.748 20.0069C295.654 19.877 295.602 19.5728 295.621 19.3587C295.61 19.5789 295.662 19.8831 295.748 20.0069ZM300.297 12.8925C300.359 12.9627 300.383 13.0164 300.378 13.0733C300.377 13.0241 300.359 12.9627 300.297 12.8925ZM300.69 11.8363C300.681 11.8657 300.67 11.8812 300.658 11.8967C300.67 11.8812 300.687 11.8579 300.69 11.8363ZM290.507 24.5225C290.515 24.5286 290.515 24.5286 290.523 24.5347C290.515 24.5286 290.507 24.5225 290.507 24.5225ZM290.082 25.1943C290.092 25.165 290.101 25.1356 290.11 25.1063C290.095 25.1434 290.092 25.165 290.082 25.1943ZM297.121 15.6579C297.294 15.6301 297.456 15.5825 297.609 15.4795C297.456 15.5825 297.286 15.624 297.121 15.6579ZM303.693 7.32759C303.711 7.38898 303.768 7.43154 303.819 7.48184C303.782 7.42987 303.711 7.38898 303.693 7.32759ZM303.827 7.48792C303.826 7.52332 303.834 7.5648 303.844 7.58471C303.825 7.55872 303.826 7.52332 303.827 7.48792ZM304.596 7.81934C304.604 7.82542 304.604 7.82542 304.618 7.82375C304.61 7.81767 304.596 7.81934 304.596 7.81934ZM305.999 8.98505C306.024 9.00329 306.046 9.00771 306.062 9.01986C306.046 9.00771 306.03 8.99555 305.999 8.98505ZM307.156 10.3285C307.172 10.376 307.176 10.4391 307.202 10.4712C307.178 10.4529 307.172 10.376 307.156 10.3285ZM308.643 11.1949C308.62 11.1413 308.632 11.0904 308.661 11.0516C308.632 11.0904 308.625 11.1335 308.643 11.1949ZM300.01 25.8548C300.071 25.8404 300.125 25.8199 300.18 25.8133C300.125 25.8199 300.066 25.8482 300.01 25.8548ZM301.701 23.9588C301.783 24.0196 301.86 24.0527 301.946 24.0565C301.862 24.0665 301.785 24.0334 301.701 23.9588ZM303.867 23.3678C303.857 23.3479 303.852 23.3203 303.836 23.3081C303.844 23.3142 303.857 23.3479 303.867 23.3678ZM300.053 29.1875C300.058 29.2151 300.061 29.2289 300.065 29.2566C300.055 29.2367 300.058 29.2151 300.053 29.1875ZM300.454 29.2807C300.458 29.3083 300.466 29.3498 300.465 29.3852C300.466 29.3498 300.467 29.3144 300.454 29.2807ZM313.051 16.2844C313.148 16.3081 313.191 16.3524 313.217 16.4198C313.185 16.3601 313.148 16.3081 313.051 16.2844C313.009 16.3248 312.96 16.373 312.917 16.4134C312.96 16.373 313.003 16.3325 313.051 16.2844ZM310.5 20.1535C310.461 20.1369 310.429 20.1126 310.382 20.0899C310.421 20.1065 310.467 20.1291 310.5 20.1535ZM309.657 20.586C309.631 20.6385 309.607 20.7049 309.597 20.7696C309.613 20.6972 309.631 20.6385 309.657 20.586ZM312.478 16.9175C312.522 16.9618 312.579 17.0043 312.588 17.0596C312.57 16.9982 312.508 16.9634 312.478 16.9175ZM309.522 21.075C309.531 21.0457 309.534 21.0241 309.543 20.9948C309.54 21.0164 309.531 21.0457 309.522 21.075ZM309.578 21.0329C309.624 21.091 309.682 21.0981 309.74 21.1053C309.674 21.0921 309.616 21.0849 309.578 21.0329ZM309.746 21.0976C309.782 21.1003 309.824 21.0953 309.86 21.098C309.818 21.103 309.782 21.1003 309.746 21.0976ZM314.366 15.0474C314.436 15.039 314.5 15.0384 314.558 15.0456C314.491 15.0323 314.436 15.039 314.366 15.0474ZM302.769 31.7275L302.783 31.7258C302.783 31.7258 302.774 31.7197 302.769 31.7275ZM313.035 19.2713C313.046 19.2912 313.064 19.3172 313.075 19.3371C313.064 19.3172 313.054 19.2973 313.035 19.2713ZM312.423 20.128C312.47 20.0306 312.492 19.915 312.548 19.8237C312.484 19.9089 312.475 20.0228 312.423 20.128C312.474 20.1783 312.523 20.2147 312.574 20.265C312.523 20.2147 312.48 20.1705 312.423 20.128ZM312.574 20.265C312.606 20.3248 312.621 20.3723 312.639 20.4337C312.621 20.3723 312.598 20.3187 312.574 20.265ZM314.633 17.8239C314.656 17.7929 314.666 17.7636 314.697 17.7387C314.674 17.7697 314.656 17.7929 314.633 17.8239ZM314.956 17.5947C314.868 17.4925 314.793 17.3885 314.779 17.2702C314.798 17.3808 314.873 17.4847 314.956 17.5947ZM313.739 20.2173C313.693 20.1947 313.654 20.1781 313.613 20.1477C313.654 20.1781 313.701 20.2008 313.739 20.2173ZM308.906 26.6388C308.918 26.7079 308.944 26.7754 309.023 26.8224C308.944 26.7754 308.912 26.7157 308.906 26.6388ZM309.229 26.9036C309.279 27.0247 309.261 27.1679 309.283 27.2924C309.267 27.1602 309.293 27.023 309.229 26.9036Z" fill="#F3F1FF"/>
<path d="M97.5105 109.389C96.5434 108.8 95.9631 107.622 94.9315 107.209C93.9 106.797 92.546 107.091 91.2566 107.268C90.225 106.62 90.096 107.504 89.6447 108.093C89.0645 108.918 89 109.919 89 110.744C89 111.863 89.4513 112.924 90.7408 113.572C91.7723 114.102 92.675 114.514 93.7065 113.749C94.1579 113.454 94.4802 113.395 94.996 113.749C95.6407 114.22 96.221 114.338 96.4144 113.336C96.4144 113.159 96.5434 112.924 96.6078 112.924C98.0262 112.688 97.6394 111.569 97.8973 110.744C98.2197 110.155 98.0907 109.742 97.5105 109.389Z" fill="#F3F1FF"/>
</svg>
