<?xml version="1.0" standalone="no"?>
<!DOCTYPE svg PUBLIC "-//W3C//DTD SVG 20010904//EN"
 "http://www.w3.org/TR/2001/REC-SVG-20010904/DTD/svg10.dtd">
<svg version="1.0" xmlns="http://www.w3.org/2000/svg"
 width="964.000000pt" height="964.000000pt" viewBox="0 0 964.000000 964.000000"
 preserveAspectRatio="xMidYMid meet">
<metadata>
Created by potrace 1.14, written by Peter Selinger 2001-2017
</metadata>
<g transform="translate(0.000000,964.000000) scale(0.100000,-0.100000)"
fill="#000000" stroke="none">
<path d="M4745 9576 c-38 -36 -73 -65 -77 -66 -5 0 -8 27 -8 59 l0 60 -37 -6
c-180 -27 -422 -114 -575 -206 -345 -207 -571 -481 -688 -836 -50 -149 -70
-251 -77 -376 -4 -73 -10 -107 -23 -125 -30 -44 -63 -113 -76 -165 -19 -69
-19 -392 0 -461 44 -168 187 -300 344 -320 l52 -7 0 250 0 250 74 199 c40 110
83 229 95 266 l22 67 101 0 c56 0 104 4 109 8 4 4 26 53 49 108 42 101 60 132
60 105 0 -38 23 -196 29 -202 17 -18 1106 123 1128 146 3 3 0 40 -6 82 -7 41
-11 78 -8 80 2 3 42 -27 87 -65 l84 -69 60 18 c34 9 68 20 76 24 12 5 31 -16
75 -81 69 -102 166 -225 348 -443 71 -85 154 -186 183 -225 l54 -72 0 -223 0
-223 53 7 c156 20 298 153 342 321 21 82 21 378 0 460 -27 102 -79 179 -173
257 -29 24 -32 31 -32 85 0 140 -56 355 -130 503 -155 307 -413 562 -727 719
-97 48 -232 101 -257 101 -8 0 -47 -25 -89 -55 -41 -30 -79 -55 -84 -55 -4 0
-7 31 -5 68 3 51 0 71 -11 80 -9 8 -65 15 -143 18 l-129 6 -70 -66z"/>
<path d="M4135 5962 c-184 -82 -256 -117 -345 -167 -129 -73 -882 -470 -1176
-620 -181 -93 -275 -135 -310 -140 -70 -11 -107 -28 -158 -75 -59 -54 -89
-108 -127 -222 -16 -51 -38 -102 -48 -113 -60 -65 -210 -471 -285 -771 -61
-244 -82 -373 -122 -772 -4 -40 -14 -63 -42 -100 -33 -41 -37 -54 -37 -104 0
-45 5 -61 23 -81 l23 -24 34 32 c53 50 112 67 259 73 134 5 331 -12 354 -30 9
-8 12 -288 12 -1337 l0 -1326 24 -52 c30 -64 87 -108 159 -123 36 -7 846 -9
2692 -8 2519 3 2642 4 2680 21 51 23 91 61 118 112 l22 40 3 1352 c1 744 4
1353 7 1353 2 0 28 -5 57 -11 66 -14 104 -33 144 -71 l31 -29 22 35 c39 62 29
125 -29 192 -25 29 -28 42 -39 170 -24 268 -69 522 -141 794 -21 80 -53 219
-70 308 -74 392 -180 647 -334 811 -80 84 -159 135 -243 155 -37 10 -86 22
-108 28 -57 14 -786 428 -1068 606 -190 120 -181 118 -415 104 -357 -22 -921
-8 -1397 33 -56 5 -68 2 -170 -43z m937 -3992 c109 -31 140 -182 53 -259 -139
-122 -337 68 -218 210 45 53 95 68 165 49z"/>
</g>
</svg>
